<?xml version="1.0" standalone="no"?>
<!DOCTYPE svg PUBLIC "-//W3C//DTD SVG 20010904//EN"
 "http://www.w3.org/TR/2001/REC-SVG-20010904/DTD/svg10.dtd">
<svg version="1.0" xmlns="http://www.w3.org/2000/svg"
 width="800.000000pt" height="600.000000pt" viewBox="0 0 800.000000 600.000000"
 preserveAspectRatio="xMidYMid meet">
<metadata>
Created by potrace 1.16, written by Peter Selinger 2001-2019
</metadata>
<g transform="translate(0.000000,600.000000) scale(0.100000,-0.100000)"
fill="#000000" stroke="none">
<path d="M3068 4070 c-52 -16 -98 -52 -126 -98 l-27 -47 0 -925 0 -925 28 -47
c67 -115 228 -141 326 -53 45 41 65 86 79 178 13 88 47 138 115 172 95 47 186
28 259 -53 37 -41 41 -51 57 -160 20 -125 120 -204 239 -188 98 13 164 79 183
182 20 108 30 135 65 174 46 51 107 74 178 68 108 -9 179 -87 195 -215 10 -83
28 -121 77 -161 68 -56 160 -65 242 -23 47 24 66 45 91 101 20 44 21 61 21
950 0 889 -1 906 -21 950 -25 56 -44 77 -91 101 -82 42 -174 33 -242 -23 -69
-57 -70 -62 -76 -373 -5 -276 -5 -281 -30 -325 -38 -67 -96 -103 -174 -108
-71 -5 -120 14 -168 65 -54 56 -58 81 -58 346 0 270 -8 318 -58 373 -46 50
-89 68 -162 69 -64 0 -66 -1 -242 -102 -98 -57 -182 -103 -188 -103 -6 0 -84
42 -173 93 -207 120 -240 131 -319 107z m329 -664 c76 -83 17 -209 -97 -209
-60 0 -114 49 -120 108 -5 49 2 70 40 107 39 39 42 40 92 36 44 -5 57 -11 85
-42z m490 24 c69 -42 82 -134 27 -191 -55 -57 -139 -56 -188 2 -93 110 38 265
161 189z"/>
</g>
</svg>
